<svg id="svg" version="1.1" width="1088" height="715" viewBox="0 0 1088 715" xmlns="http://www.w3.org/2000/svg"><path d="M664.693 16.972 C 662.049 18.005,659.349 19.275,658.693 19.795 C 657.308 20.892,634.874 32.594,617.500 41.283 C 610.900 44.583,602.575 48.969,599.000 51.029 C 595.425 53.089,588.225 56.886,583.000 59.466 C 567.648 67.045,567.226 67.284,564.299 70.006 C 556.826 76.959,540.732 89.801,532.847 95.103 C 520.527 103.387,518.076 105.761,512.098 115.196 C 509.204 119.763,504.398 126.875,501.418 131.000 C 495.466 139.240,493.422 143.233,492.417 148.592 C 492.051 150.540,489.896 154.409,487.626 157.189 C 485.357 159.970,479.977 167.027,475.672 172.872 L 467.844 183.500 468.420 190.500 C 470.412 214.714,470.050 212.865,473.340 215.633 C 475.784 217.689,477.084 218.086,479.891 217.630 C 483.164 217.099,491.036 212.378,495.528 208.251 C 497.716 206.241,501.750 204.006,519.725 194.847 C 530.830 189.188,534.283 188.114,532.597 190.844 C 532.265 191.381,527.382 194.584,521.747 197.963 C 516.111 201.341,508.506 205.994,504.846 208.303 C 489.461 218.007,475.052 226.958,468.500 230.880 C 461.952 234.801,457.658 237.884,448.913 244.943 C 445.819 247.441,430.752 265.871,426.506 272.350 C 425.551 273.809,424.560 281.050,423.543 294.020 C 422.702 304.734,422.011 313.810,422.007 314.188 C 422.003 314.567,420.609 316.367,418.909 318.188 C 417.208 320.010,413.803 324.523,411.340 328.217 C 408.777 332.063,401.549 339.947,394.431 346.664 C 387.594 353.115,382.000 359.033,382.000 359.813 C 382.000 360.593,383.578 363.381,385.506 366.008 C 389.518 371.473,392.340 377.641,391.472 379.046 C 390.802 380.129,385.238 386.415,376.750 395.676 C 373.587 399.126,371.000 402.402,371.000 402.955 C 371.000 403.509,372.800 407.750,375.000 412.381 C 377.200 417.011,379.002 421.407,379.004 422.150 C 379.017 427.108,387.898 433.683,399.500 437.325 C 405.685 439.267,412.226 439.823,412.684 438.447 C 412.989 437.532,402.710 431.016,394.500 426.920 C 387.367 423.361,395.624 422.564,403.338 426.066 C 408.355 428.344,413.000 428.592,413.000 426.582 C 413.000 425.802,413.264 424.474,413.588 423.632 C 414.001 422.555,413.036 421.581,410.338 420.353 L 406.500 418.605 409.750 418.239 C 413.453 417.822,413.658 417.384,411.345 414.829 C 408.958 412.192,411.190 412.405,418.942 415.555 C 422.400 416.960,426.190 417.964,427.364 417.786 C 429.021 417.536,427.526 416.149,420.705 411.610 C 411.546 405.515,409.528 403.144,417.115 407.393 C 419.527 408.744,425.775 412.002,431.000 414.632 C 436.225 417.263,442.585 420.897,445.134 422.708 C 447.683 424.519,450.214 426.000,450.760 426.000 C 451.728 426.000,459.484 429.247,467.500 433.007 C 469.700 434.040,479.091 437.422,488.368 440.524 C 506.471 446.576,508.334 446.636,506.037 441.089 C 504.243 436.759,503.174 436.159,495.249 435.035 C 481.687 433.112,451.725 421.280,437.927 412.399 C 432.095 408.645,416.990 400.046,404.323 393.269 C 394.692 388.115,392.262 386.003,393.556 383.910 C 394.559 382.286,396.933 382.939,401.159 386.000 C 403.436 387.650,405.714 389.000,406.219 389.000 C 406.725 389.000,404.295 385.600,400.819 381.444 C 388.379 366.569,386.783 363.000,392.572 363.000 C 394.021 363.000,398.899 361.849,403.411 360.442 C 410.959 358.089,412.041 357.404,416.945 351.877 C 424.046 343.874,451.923 321.735,479.612 302.109 C 487.711 296.369,504.955 286.622,505.697 287.364 C 505.942 287.609,501.639 291.002,496.134 294.905 C 480.300 306.132,470.327 314.080,437.500 341.634 C 426.851 350.573,417.303 358.000,416.461 358.000 C 416.046 358.000,413.860 359.511,411.603 361.357 C 409.346 363.203,406.528 365.020,405.340 365.395 C 404.152 365.771,402.601 366.776,401.892 367.630 C 400.786 368.963,402.066 370.576,410.965 379.062 C 419.320 387.029,423.087 389.820,430.413 393.474 L 439.500 398.005 454.000 397.386 C 478.221 396.353,497.505 399.434,502.614 405.153 C 504.224 406.955,529.506 420.000,531.389 420.000 C 531.749 420.000,536.421 422.173,541.771 424.829 C 551.266 429.543,560.498 437.173,565.185 444.183 C 567.082 447.021,566.811 446.977,611.000 451.553 C 638.434 454.394,646.000 454.627,646.000 452.630 C 646.000 451.328,644.012 450.642,632.250 447.888 C 623.802 445.909,600.223 438.871,595.000 436.769 C 593.625 436.216,589.800 434.978,586.500 434.019 C 579.825 432.080,559.282 424.108,551.404 420.399 C 548.600 419.080,545.866 418.000,545.326 418.000 C 543.396 418.000,531.405 412.739,526.290 409.648 C 520.389 406.082,519.027 404.067,521.996 403.291 C 524.910 402.529,524.466 400.872,520.500 397.707 C 518.575 396.171,517.000 394.353,517.000 393.666 C 517.000 390.515,533.368 384.906,554.000 380.986 C 565.673 378.769,585.240 374.511,593.009 372.498 C 599.732 370.756,603.000 370.593,603.000 372.000 C 603.000 374.320,615.407 371.873,622.822 368.091 C 625.076 366.941,627.633 366.000,628.505 366.000 C 629.377 366.000,634.682 364.820,640.295 363.378 C 645.908 361.935,652.300 360.463,654.500 360.107 C 657.551 359.613,658.430 359.049,658.206 357.730 C 658.018 356.620,658.555 356.005,659.706 356.014 C 660.693 356.022,669.048 354.583,678.274 352.816 C 690.721 350.433,695.616 349.075,697.254 347.552 L 699.461 345.500 676.480 344.729 C 663.841 344.306,649.960 344.208,645.634 344.512 C 639.335 344.956,637.543 344.767,636.634 343.562 C 635.814 342.475,632.590 341.878,625.000 341.409 C 619.225 341.052,613.600 340.774,612.500 340.790 C 606.853 340.874,586.203 342.182,584.250 342.580 C 581.461 343.148,581.302 345.644,584.000 346.500 C 586.971 347.443,586.437 348.791,582.428 350.466 C 579.623 351.637,578.925 352.441,579.178 354.201 C 579.532 356.669,581.798 357.317,594.250 358.512 C 597.962 358.868,601.000 359.533,601.000 359.989 C 601.000 360.937,591.039 362.604,580.000 363.504 C 571.850 364.168,525.277 373.225,505.676 377.957 C 498.979 379.574,490.575 381.392,487.000 381.997 C 483.425 382.602,479.150 383.485,477.500 383.959 C 471.503 385.681,469.000 386.019,469.000 385.107 C 469.000 384.595,470.891 383.856,473.202 383.466 C 475.513 383.076,479.385 381.907,481.808 380.868 C 485.635 379.228,486.134 378.669,485.616 376.605 C 485.239 375.105,485.569 373.773,486.510 372.992 C 488.292 371.513,488.444 368.844,486.837 367.237 C 485.953 366.353,486.281 365.844,488.201 365.114 C 491.391 363.901,492.164 361.945,490.404 359.538 C 489.173 357.854,489.339 357.472,492.015 355.844 C 493.657 354.846,495.000 353.356,495.000 352.534 C 495.000 351.704,496.224 350.791,497.750 350.482 C 503.797 349.260,505.499 348.397,505.206 346.702 C 504.962 345.290,505.751 345.000,509.834 345.000 C 514.944 345.000,518.620 342.836,515.526 341.648 C 512.943 340.657,513.836 339.000,516.953 339.000 C 523.262 339.000,527.146 335.349,523.250 333.080 C 521.673 332.161,521.714 332.058,523.665 332.030 C 524.856 332.014,526.881 331.115,528.165 330.033 C 529.449 328.951,537.700 324.389,546.500 319.894 C 555.300 315.399,564.975 310.440,568.000 308.873 C 571.025 307.307,573.800 306.020,574.167 306.013 C 576.264 305.973,624.030 275.556,624.833 273.750 C 625.017 273.337,625.704 273.000,626.361 273.000 C 627.018 273.000,628.246 272.212,629.090 271.250 C 629.934 270.288,632.072 268.410,633.841 267.079 C 635.610 265.747,636.697 264.297,636.258 263.858 C 634.892 262.492,628.849 264.609,603.000 275.509 C 596.125 278.408,587.350 281.918,583.500 283.310 C 579.650 284.701,573.800 287.202,570.500 288.866 C 567.200 290.531,561.350 293.218,557.500 294.838 C 545.159 300.030,525.943 308.950,521.150 311.713 C 518.592 313.186,509.525 319.003,501.000 324.639 C 486.379 334.305,481.798 337.956,466.019 352.514 C 462.433 355.822,458.257 359.491,456.738 360.667 C 454.909 362.084,453.672 364.275,453.076 367.153 C 450.802 378.145,449.147 384.954,448.493 386.012 C 448.004 386.802,446.951 386.393,445.140 384.711 C 443.688 383.363,439.130 381.255,435.012 380.028 C 424.447 376.881,420.704 374.753,419.341 371.116 C 418.261 368.234,418.397 367.848,421.341 365.433 C 427.240 360.593,429.490 358.904,438.500 352.549 C 443.450 349.057,448.178 345.593,449.006 344.850 C 451.445 342.665,462.179 334.715,466.504 331.892 C 485.214 319.678,492.932 314.390,495.500 312.023 C 500.413 307.497,516.078 295.915,518.890 294.730 C 522.215 293.329,546.871 275.857,551.107 271.900 C 553.381 269.776,553.999 268.599,553.239 267.839 C 552.479 267.079,551.203 267.489,548.835 269.252 C 547.001 270.618,544.150 272.556,542.500 273.560 L 539.500 275.384 542.500 272.089 C 544.150 270.276,547.884 267.256,550.798 265.378 C 555.850 262.122,556.808 260.000,553.227 260.000 C 550.266 260.000,554.255 256.967,563.693 252.043 C 572.844 247.268,575.829 244.220,570.125 245.473 C 567.949 245.950,566.560 245.702,565.505 244.648 C 564.312 243.455,563.320 243.354,560.749 244.166 C 558.962 244.731,556.375 245.426,555.000 245.711 C 552.614 246.206,552.641 246.122,555.600 243.865 C 563.265 238.017,580.000 221.581,580.000 219.901 C 580.000 218.678,579.498 218.255,578.500 218.638 C 576.509 219.402,576.604 218.435,578.750 216.077 C 587.633 206.319,597.500 193.133,599.498 188.349 C 600.268 186.507,601.148 185.000,601.453 185.000 C 601.758 185.000,603.686 185.900,605.739 187.000 C 609.688 189.116,621.000 189.875,621.000 188.023 C 621.000 187.486,619.763 186.261,618.250 185.302 C 616.737 184.343,613.910 182.311,611.967 180.787 C 607.773 177.496,607.655 177.481,567.500 175.325 C 515.376 172.527,519.750 172.479,509.102 175.963 C 503.933 177.654,499.517 178.850,499.287 178.621 C 499.058 178.391,501.262 177.419,504.185 176.459 C 507.108 175.500,512.250 173.426,515.612 171.851 C 519.311 170.117,524.837 168.584,529.612 167.968 C 548.765 165.496,623.047 163.698,647.000 165.126 C 652.775 165.471,658.513 165.369,659.750 164.901 C 662.077 164.020,662.829 160.631,660.954 159.472 C 660.379 159.116,658.079 156.502,655.842 153.663 C 653.605 150.823,649.568 146.025,646.869 143.000 C 642.490 138.091,639.543 134.525,627.128 119.116 C 625.273 116.814,620.439 111.009,616.386 106.215 C 612.332 101.422,609.012 97.147,609.008 96.715 C 608.992 95.165,612.806 98.014,618.089 103.500 C 624.954 110.628,631.144 114.347,634.804 113.543 C 636.534 113.163,639.034 113.681,641.710 114.974 C 646.692 117.381,647.878 117.481,648.618 115.554 C 648.949 114.691,647.322 112.176,644.582 109.317 C 639.732 104.255,639.332 102.696,642.756 102.190 C 646.147 101.689,647.423 99.453,646.146 96.251 C 645.542 94.738,645.103 92.142,645.170 90.482 C 645.236 88.822,644.535 86.001,643.611 84.214 C 642.117 81.325,642.100 80.899,643.465 80.375 C 645.519 79.587,645.399 76.861,643.084 71.739 C 639.217 63.183,638.472 60.075,639.785 57.973 C 640.453 56.903,641.010 54.109,641.022 51.764 L 641.044 47.500 643.000 50.000 C 644.076 51.375,644.966 52.853,644.978 53.285 C 644.990 53.717,645.732 55.187,646.626 56.553 C 648.751 59.795,651.000 58.147,651.000 53.348 L 651.000 49.940 654.000 52.158 C 655.963 53.609,657.005 55.262,657.015 56.938 C 657.035 60.187,658.445 62.461,659.888 61.569 C 660.500 61.191,661.000 59.698,661.000 58.250 C 661.000 55.733,661.062 55.702,662.418 57.557 C 664.645 60.602,665.492 58.493,665.603 49.628 C 665.714 40.803,667.377 34.000,669.423 34.000 C 671.511 34.000,673.743 37.221,674.966 42.000 C 676.628 48.494,678.371 51.928,684.595 60.963 C 690.049 68.881,693.000 70.979,693.000 66.941 C 693.000 63.905,694.636 65.449,695.423 69.229 L 696.104 72.500 698.419 69.650 L 700.735 66.800 701.815 69.900 C 702.410 71.605,703.606 73.000,704.473 73.000 C 706.321 73.000,707.458 70.334,708.428 63.729 C 708.814 61.104,710.247 56.429,711.614 53.339 C 713.658 48.717,713.916 47.198,713.072 44.777 L 712.046 41.833 715.596 44.950 C 722.688 51.177,726.944 53.265,731.171 52.589 C 734.778 52.012,735.332 52.268,739.049 56.234 C 741.249 58.580,744.486 62.300,746.244 64.500 C 750.567 69.911,758.878 77.455,759.657 76.676 C 760.170 76.163,758.818 71.936,756.128 65.638 C 755.923 65.159,757.929 67.070,760.585 69.884 C 765.310 74.891,768.855 76.670,767.603 73.407 C 767.267 72.531,766.707 70.683,766.360 69.299 C 765.800 67.068,765.941 66.901,767.615 67.820 C 768.652 68.389,771.050 70.013,772.944 71.428 C 774.839 72.842,776.751 74.000,777.194 74.000 C 778.433 74.000,778.149 70.549,776.800 69.200 C 776.044 68.444,775.992 68.000,776.659 68.000 C 777.242 68.000,779.694 69.712,782.109 71.805 C 789.292 78.029,792.465 79.949,794.001 79.000 C 796.378 77.530,792.460 71.925,780.406 59.554 C 770.144 49.023,768.825 48.009,763.391 46.481 C 760.151 45.570,754.526 43.964,750.892 42.912 C 747.258 41.860,743.433 40.995,742.392 40.990 C 740.428 40.979,738.432 39.996,722.697 31.291 C 711.628 25.167,706.128 22.904,694.256 19.589 C 687.608 17.733,671.079 14.678,669.678 15.047 C 669.580 15.073,667.337 15.939,664.693 16.972 M660.693 53.731 C 660.439 54.704,660.215 54.150,660.195 52.500 C 660.175 50.850,660.382 50.054,660.656 50.731 C 660.930 51.408,660.947 52.758,660.693 53.731 M776.000 50.668 C 776.000 53.465,787.986 66.291,792.681 68.519 C 795.535 69.873,797.485 69.959,805.767 69.096 C 811.120 68.539,820.666 67.808,826.980 67.473 C 833.294 67.138,839.016 66.402,839.696 65.837 C 840.376 65.273,841.499 65.000,842.191 65.230 C 842.883 65.461,840.218 67.537,836.268 69.843 C 832.319 72.150,828.505 74.862,827.794 75.871 C 825.923 78.523,813.600 86.191,803.880 90.752 C 793.727 95.517,776.113 100.822,767.681 101.656 C 764.282 101.993,760.758 102.911,759.851 103.698 C 757.432 105.795,748.323 107.975,741.922 107.988 C 735.271 108.002,722.302 103.787,722.870 101.796 C 723.073 101.083,723.446 96.450,723.698 91.500 C 724.484 76.064,721.682 52.984,719.310 55.357 C 718.961 55.705,718.612 64.430,718.533 74.745 C 718.455 85.060,718.010 97.888,717.544 103.250 C 716.888 110.813,716.977 113.000,717.943 113.000 C 718.627 113.000,719.423 112.100,719.710 111.000 C 720.374 108.464,720.695 108.485,727.151 111.490 C 731.475 113.503,734.074 113.982,740.709 113.990 C 747.716 113.999,750.352 113.465,758.709 110.348 C 764.094 108.340,773.624 104.970,779.886 102.858 C 794.351 97.982,831.172 79.499,841.000 72.180 C 851.039 64.704,859.427 57.890,859.821 56.889 C 860.342 55.566,856.672 55.154,833.500 53.935 C 802.025 52.280,788.315 51.368,781.750 50.492 C 778.271 50.028,776.000 50.097,776.000 50.668 M596.000 61.567 C 596.000 61.878,594.429 63.791,592.509 65.817 C 590.588 67.843,589.013 70.049,589.009 70.720 C 589.004 71.443,587.678 71.907,585.750 71.861 C 583.962 71.818,579.913 72.951,576.750 74.379 C 573.587 75.807,571.009 76.643,571.021 76.237 C 571.041 75.516,593.771 61.323,595.250 61.109 C 595.663 61.049,596.000 61.255,596.000 61.567 M600.000 80.655 C 600.000 82.499,598.979 82.341,597.392 80.250 C 595.195 77.356,595.636 75.361,598.000 77.500 C 599.100 78.495,600.000 79.915,600.000 80.655 M689.000 89.514 C 689.000 90.346,689.443 91.809,689.984 92.764 C 691.918 96.176,702.792 122.575,703.880 126.500 C 704.490 128.700,704.991 132.605,704.994 135.177 C 705.001 140.904,702.907 142.870,693.446 146.018 C 686.827 148.221,685.763 149.620,688.571 152.429 C 691.982 155.839,698.334 153.693,704.269 147.124 C 709.177 141.692,711.073 137.730,711.679 131.637 C 712.119 127.221,711.828 126.009,709.605 123.000 C 708.182 121.075,706.442 118.375,705.737 117.000 C 705.033 115.625,702.864 112.025,700.918 109.000 C 698.971 105.975,695.680 100.013,693.603 95.750 C 689.755 87.854,689.000 86.830,689.000 89.514 M582.500 91.555 C 584.700 92.849,588.432 95.729,590.793 97.954 C 593.155 100.180,595.433 102.000,595.856 102.000 C 597.060 102.000,602.000 107.472,602.000 108.805 C 602.000 110.340,601.477 110.316,593.312 108.409 C 589.565 107.534,582.675 106.418,578.000 105.929 C 563.555 104.419,547.009 102.123,545.980 101.488 C 543.960 100.239,545.174 98.940,551.250 95.850 C 565.213 88.748,575.361 87.353,582.500 91.555 M608.000 94.245 C 608.000 94.803,607.337 94.694,606.500 94.000 C 605.675 93.315,605.000 92.305,605.000 91.755 C 605.000 91.197,605.663 91.306,606.500 92.000 C 607.325 92.685,608.000 93.695,608.000 94.245 M575.500 117.947 C 583.779 118.768,591.010 120.274,606.262 124.355 C 612.915 126.135,612.454 125.908,621.128 131.671 C 626.411 135.180,628.086 136.937,629.378 140.321 C 631.226 145.158,631.457 148.000,630.003 148.000 C 629.454 148.000,627.192 149.638,624.976 151.641 L 620.946 155.281 609.723 154.580 C 603.550 154.194,596.700 153.490,594.500 153.015 C 589.279 151.888,583.517 151.265,566.489 149.985 C 546.344 148.470,539.954 147.635,539.829 146.500 C 539.590 144.336,553.303 138.793,563.175 137.063 C 574.455 135.087,577.167 133.598,571.325 132.591 C 569.221 132.228,566.150 131.661,564.500 131.331 C 561.567 130.744,561.552 130.711,563.834 129.866 C 567.137 128.644,566.026 126.695,561.423 125.637 C 556.271 124.452,556.237 124.388,559.460 121.853 L 562.225 119.678 559.862 117.761 L 557.500 115.845 562.000 116.449 C 564.475 116.782,570.550 117.455,575.500 117.947 M657.396 123.410 C 656.587 125.520,659.274 130.021,665.117 136.343 C 673.325 145.223,691.971 172.184,693.884 177.937 C 695.218 181.952,694.004 184.078,691.542 182.035 C 690.261 180.971,690.000 181.028,690.000 182.372 C 690.000 183.261,692.011 186.028,694.469 188.521 C 698.438 192.548,702.088 200.245,700.691 201.643 C 700.448 201.885,698.542 199.477,696.454 196.292 C 694.367 193.106,691.138 188.700,689.279 186.500 C 687.420 184.300,685.363 181.840,684.707 181.033 C 683.670 179.756,683.474 179.779,683.198 181.212 C 682.797 183.292,684.982 190.360,689.005 200.000 C 692.835 209.179,693.028 212.277,689.972 215.530 L 687.639 218.013 690.197 220.757 C 693.714 224.528,695.270 227.715,693.983 228.510 C 692.487 229.435,687.145 227.426,682.000 224.003 C 679.525 222.356,677.170 221.007,676.766 221.004 C 675.675 220.998,680.506 226.408,689.427 235.183 C 693.786 239.472,697.140 243.193,696.880 243.453 C 695.652 244.682,685.906 240.461,678.128 235.333 C 671.014 230.643,661.191 223.286,659.000 221.008 C 654.210 216.026,633.936 201.000,632.005 201.000 C 630.302 201.000,630.883 202.365,634.005 205.696 C 637.820 209.767,637.774 210.798,633.758 211.187 C 631.687 211.387,630.402 212.104,630.200 213.172 C 629.887 214.825,634.031 217.578,649.500 225.992 C 652.800 227.787,659.057 231.919,663.405 235.174 C 667.753 238.430,675.558 243.628,680.750 246.726 C 688.148 251.141,690.925 253.452,693.594 257.416 C 695.467 260.198,697.000 262.862,697.000 263.337 C 697.000 263.812,700.514 268.318,704.808 273.350 C 709.103 278.383,713.634 283.962,714.876 285.750 C 716.167 287.606,718.006 289.000,719.165 289.000 C 720.979 289.000,721.147 288.498,720.758 284.250 C 720.095 277.003,714.239 250.610,711.052 240.500 C 709.491 235.550,707.910 229.025,707.538 226.000 C 707.166 222.975,706.409 219.040,705.855 217.255 C 705.052 214.668,705.168 213.689,706.424 212.433 C 708.295 210.562,708.270 211.083,706.946 201.569 C 705.016 187.690,700.578 175.195,695.024 168.000 C 693.538 166.075,691.021 162.078,689.430 159.118 C 687.839 156.157,684.352 151.432,681.679 148.618 C 677.565 144.285,671.617 137.339,668.741 133.510 C 660.102 122.010,658.486 120.571,657.396 123.410 M659.000 150.719 C 659.000 152.026,665.031 160.000,666.019 160.000 C 666.484 160.000,667.151 160.900,667.500 162.000 C 667.849 163.100,668.520 164.000,668.990 164.000 C 670.114 164.000,675.743 169.651,677.048 172.090 C 678.161 174.169,680.000 174.670,680.000 172.894 C 680.000 171.583,675.095 165.044,670.077 159.665 C 665.607 154.874,659.000 149.537,659.000 150.719 M496.099 181.395 C 494.862 182.711,494.273 184.051,494.790 184.370 C 495.308 184.690,498.829 184.295,502.616 183.493 C 511.469 181.617,514.934 181.631,517.053 183.548 C 520.129 186.332,526.243 185.769,532.035 182.169 C 534.909 180.382,537.730 179.077,538.304 179.268 C 539.774 179.758,530.762 185.176,515.092 193.223 C 507.717 197.010,500.755 200.759,499.619 201.554 C 496.955 203.421,495.000 203.398,495.000 201.500 C 495.000 200.675,494.239 200.000,493.309 200.000 C 491.837 200.000,491.870 199.814,493.559 198.571 C 495.387 197.226,495.396 197.103,493.720 196.453 C 492.532 195.992,492.139 195.138,492.538 193.882 C 493.736 190.104,492.144 188.000,488.088 188.000 C 485.610 188.000,483.702 187.328,482.543 186.047 C 480.833 184.158,480.868 184.074,483.638 183.468 C 485.212 183.124,488.525 182.014,491.000 181.002 C 497.403 178.384,498.825 178.493,496.099 181.395 M572.450 183.864 C 571.928 184.339,569.390 185.239,566.811 185.863 C 564.233 186.487,558.298 188.798,553.622 190.999 C 548.947 193.200,544.475 195.000,543.683 195.000 C 541.789 195.000,539.654 197.631,540.473 198.956 C 541.309 200.308,545.577 200.297,548.121 198.935 C 549.216 198.349,550.587 198.029,551.169 198.223 C 551.751 198.417,547.422 201.006,541.548 203.976 C 535.675 206.946,530.441 210.177,529.916 211.156 C 528.720 213.393,521.605 217.601,514.745 220.130 C 511.860 221.193,508.600 222.449,507.500 222.920 C 506.400 223.391,502.653 224.993,499.174 226.479 C 489.238 230.722,490.773 228.639,501.645 223.125 C 516.741 215.468,520.381 213.356,520.836 211.993 C 521.151 211.046,519.860 210.872,515.549 211.281 C 512.411 211.579,510.117 211.525,510.452 211.161 C 511.912 209.571,545.289 192.203,554.500 188.240 C 563.848 184.219,575.068 181.483,572.450 183.864 M665.306 212.532 C 666.849 213.889,668.571 215.000,669.132 215.000 C 669.694 215.000,668.816 213.875,667.182 212.500 C 663.333 209.261,661.621 209.290,665.306 212.532 M525.000 223.845 C 522.525 225.389,513.525 230.266,505.000 234.683 C 484.823 245.138,477.367 249.454,475.000 252.048 C 474.725 252.349,472.475 253.808,470.000 255.289 C 463.527 259.162,458.000 264.401,458.000 266.663 C 458.000 267.799,456.224 269.929,453.750 271.760 C 451.413 273.490,447.578 276.567,445.230 278.599 C 442.881 280.630,440.733 282.067,440.457 281.791 C 439.432 280.766,444.424 268.089,447.901 262.888 C 451.310 257.788,452.293 257.113,466.500 250.113 C 491.275 237.905,507.710 230.072,523.500 222.946 C 529.434 220.269,530.097 220.666,525.000 223.845 M513.000 277.415 C 513.000 277.837,495.875 288.866,482.719 296.918 C 478.748 299.348,475.275 301.598,475.000 301.918 C 474.725 302.238,472.925 303.377,471.000 304.450 C 469.075 305.522,467.050 306.768,466.500 307.219 C 465.950 307.669,464.419 308.929,463.097 310.019 C 461.775 311.108,460.110 312.000,459.397 312.000 C 458.683 312.000,457.740 312.606,457.300 313.346 C 456.860 314.087,454.025 316.397,451.000 318.479 C 447.975 320.561,444.825 322.806,444.000 323.468 C 443.175 324.129,440.813 325.681,438.750 326.917 C 435.666 328.764,435.000 328.888,435.000 327.615 C 435.000 325.277,448.909 312.598,454.750 309.611 C 456.538 308.697,458.000 307.541,458.000 307.042 C 458.000 306.543,458.788 305.884,459.750 305.577 C 460.712 305.270,463.413 303.215,465.752 301.009 C 468.091 298.804,470.312 297.000,470.688 297.000 C 471.064 297.000,473.425 295.273,475.936 293.162 C 483.978 286.399,491.891 282.259,495.638 282.855 C 496.264 282.955,500.089 281.691,504.138 280.046 C 511.444 277.078,513.000 276.616,513.000 277.415 M483.821 279.287 C 483.095 279.994,479.350 283.100,475.500 286.188 C 471.650 289.276,465.796 293.984,462.491 296.651 C 459.186 299.318,454.686 302.836,452.491 304.468 C 450.296 306.101,444.225 311.517,439.000 316.503 C 424.633 330.213,413.004 340.337,412.361 339.694 C 410.947 338.280,445.093 304.800,457.500 295.435 C 460.250 293.360,464.075 290.420,466.000 288.903 C 467.925 287.386,472.200 284.702,475.500 282.938 C 478.800 281.174,481.928 279.342,482.450 278.866 C 483.978 277.473,485.275 277.871,483.821 279.287 M451.364 286.750 C 448.049 291.291,439.844 300.000,438.881 300.000 C 436.798 300.000,440.140 294.792,445.756 289.286 C 452.938 282.243,455.499 281.085,451.364 286.750 M719.893 303.250 C 719.834 303.938,719.853 307.650,719.934 311.500 C 720.124 320.446,718.949 324.251,714.678 328.522 C 712.788 330.412,711.014 333.146,710.737 334.596 C 710.078 338.044,713.006 341.000,717.079 341.000 C 720.028 341.000,720.130 341.138,719.472 344.250 C 719.094 346.038,717.958 348.862,716.949 350.526 C 714.205 355.050,690.719 376.870,681.272 383.673 C 676.067 387.420,671.597 392.363,672.991 392.829 C 674.131 393.210,684.774 388.174,685.578 386.873 C 686.342 385.637,688.000 385.788,688.000 387.094 C 688.000 387.695,687.100 388.423,686.000 388.710 C 684.900 388.998,684.000 389.592,684.000 390.031 C 684.000 390.832,672.885 397.444,667.750 399.697 C 663.374 401.617,664.195 404.000,669.232 404.000 L 673.464 404.000 669.732 406.536 C 665.330 409.527,664.849 411.453,668.687 410.720 C 672.519 409.987,673.770 410.751,673.244 413.504 C 672.874 415.439,673.293 416.035,675.392 416.562 C 676.827 416.922,678.000 417.843,678.000 418.608 C 678.000 420.338,678.006 420.338,669.500 418.429 C 665.650 417.566,660.700 416.462,658.500 415.976 C 641.689 412.266,626.273 407.574,617.330 403.445 C 610.543 400.312,605.313 400.655,609.250 403.975 C 612.742 406.921,620.201 412.040,626.000 415.471 C 629.575 417.586,633.175 419.857,634.000 420.517 C 637.093 422.991,640.571 423.845,668.500 428.988 C 674.000 430.001,680.975 431.331,684.000 431.945 C 695.809 434.341,703.228 435.114,722.264 435.930 C 735.318 436.490,742.532 437.197,743.514 438.011 C 745.775 439.888,745.292 443.759,742.493 446.193 C 739.422 448.863,740.637 449.963,746.683 449.985 C 751.656 450.003,752.278 448.835,751.874 440.236 C 751.627 434.993,751.793 434.473,753.802 434.180 C 755.011 434.005,756.000 433.186,756.000 432.361 C 756.000 430.879,750.723 422.565,749.175 421.608 C 748.736 421.337,746.759 422.551,744.782 424.307 C 740.626 427.999,730.445 433.393,729.148 432.591 C 728.663 432.292,723.818 431.341,718.383 430.480 C 703.199 428.073,697.000 426.129,697.000 423.776 C 697.000 422.698,696.092 420.661,694.982 419.251 C 693.661 417.571,693.193 415.967,693.626 414.602 C 695.716 408.019,707.539 385.735,718.353 368.000 C 727.674 352.714,735.535 334.504,734.482 330.640 C 731.944 321.333,729.236 313.973,727.297 311.110 C 726.034 309.246,725.000 307.141,725.000 306.432 C 725.000 304.942,722.297 302.000,720.929 302.000 C 720.418 302.000,719.952 302.563,719.893 303.250 M700.040 305.285 C 700.018 305.717,700.715 307.161,701.588 308.495 C 703.969 312.127,702.592 316.337,697.675 320.460 C 694.171 323.398,693.841 323.964,695.624 323.980 C 698.954 324.011,706.152 321.167,707.613 319.243 C 708.341 318.284,708.951 316.756,708.968 315.847 C 708.999 314.234,700.118 303.729,700.040 305.285 M722.208 369.643 C 717.944 377.746,715.027 403.918,717.990 407.488 C 720.199 410.149,729.921 415.150,732.245 414.820 C 734.189 414.544,734.478 413.948,734.340 410.500 C 734.065 403.605,733.519 398.519,733.000 398.000 C 731.837 396.837,728.657 386.858,726.786 378.500 C 724.569 368.592,723.673 366.859,722.208 369.643 M370.526 441.526 C 366.040 446.013,366.000 446.113,366.000 452.895 C 366.000 464.037,363.728 475.212,354.947 507.250 C 354.103 510.331,353.466 511.000,351.377 511.000 C 349.978 511.000,348.983 511.405,349.167 511.900 C 349.350 512.395,353.100 516.928,357.500 521.974 C 365.229 530.836,365.907 531.345,377.500 536.967 C 389.784 542.925,395.379 544.954,412.000 549.478 C 461.694 563.005,573.460 572.381,628.000 567.597 C 682.629 562.805,686.273 562.257,712.000 554.975 C 728.875 550.199,740.023 546.198,750.597 541.124 C 760.073 536.578,771.899 528.203,771.959 525.998 C 771.982 525.171,769.812 520.778,767.138 516.234 C 761.194 506.136,760.622 502.427,762.129 483.795 C 763.159 471.057,763.105 469.866,761.369 466.900 C 760.341 465.145,758.280 462.799,756.788 461.688 C 754.219 459.773,753.690 459.738,746.788 461.022 C 742.780 461.768,738.938 462.273,738.250 462.145 C 736.482 461.816,736.691 463.668,738.500 464.362 C 739.325 464.678,739.995 465.514,739.988 466.219 C 739.951 470.215,710.286 500.838,693.218 514.500 C 684.474 521.499,677.240 529.574,678.545 530.878 C 679.058 531.391,688.141 524.423,700.000 514.420 C 712.455 503.914,729.191 485.911,740.439 470.918 C 742.530 468.131,744.118 467.004,745.939 467.015 C 750.745 467.044,751.199 467.994,749.999 475.508 C 749.398 479.266,748.667 482.729,748.374 483.203 C 747.228 485.058,746.183 490.000,746.937 490.000 C 747.375 490.000,748.925 488.200,750.381 486.000 C 751.837 483.800,753.411 482.000,753.879 482.000 C 755.164 482.000,755.904 507.094,754.698 509.754 C 754.135 510.994,754.035 512.344,754.474 512.754 C 754.914 513.164,755.475 512.938,755.720 512.250 C 756.321 510.567,758.000 510.656,758.000 512.371 C 758.000 513.125,756.581 516.955,754.846 520.883 C 753.111 524.811,752.028 528.357,752.439 528.762 C 752.850 529.168,754.685 527.720,756.516 525.544 L 759.846 521.588 761.890 524.044 C 763.014 525.395,763.948 526.800,763.967 527.166 C 764.037 528.573,756.176 533.868,748.965 537.269 C 741.937 540.584,734.839 543.058,714.218 549.379 C 704.085 552.486,684.555 556.566,670.768 558.456 C 665.120 559.231,654.002 560.795,646.061 561.932 C 638.119 563.069,628.170 564.000,623.950 564.000 C 617.322 564.000,615.754 563.644,612.415 561.378 L 608.552 558.756 601.526 560.436 C 585.460 564.278,570.727 564.855,547.500 562.553 C 500.600 557.903,464.717 553.761,447.500 551.009 C 440.900 549.954,433.497 548.791,431.048 548.424 C 426.102 547.682,418.566 544.724,417.587 543.141 C 417.238 542.577,414.826 541.827,412.227 541.475 C 402.582 540.167,377.040 530.337,377.008 527.921 C 377.003 527.602,377.967 527.377,379.149 527.421 C 382.624 527.549,382.374 525.389,378.505 521.868 C 375.056 518.730,374.990 518.548,377.017 517.798 C 379.423 516.908,379.045 514.000,376.070 510.500 C 375.134 509.400,373.667 507.364,372.810 505.976 C 370.933 502.939,369.296 492.581,370.779 493.130 C 371.329 493.333,373.878 496.087,376.444 499.250 C 381.568 505.564,383.521 506.505,382.711 502.269 C 382.200 499.596,382.261 499.617,385.638 503.302 C 389.354 507.357,391.005 507.478,390.272 503.641 C 389.591 500.080,391.649 499.526,393.697 502.718 C 394.678 504.248,396.498 506.620,397.741 507.990 C 399.536 509.968,400.000 510.134,400.000 508.799 C 400.000 507.874,399.597 506.869,399.104 506.564 C 398.204 506.008,394.000 498.435,394.000 497.370 C 394.000 497.057,398.347 501.233,403.661 506.650 C 410.951 514.083,413.422 516.071,413.733 514.753 C 414.112 513.149,411.926 509.326,405.825 500.917 C 404.180 498.650,403.865 497.585,404.750 497.273 C 405.438 497.031,406.000 495.285,406.000 493.394 C 406.000 489.965,406.008 489.959,408.471 491.573 C 411.976 493.869,418.784 505.060,420.119 510.718 C 421.997 518.680,422.538 519.439,428.465 522.438 C 433.080 524.773,434.341 525.066,435.023 523.962 C 435.967 522.435,436.042 522.601,431.013 515.000 C 429.011 511.975,426.544 507.700,425.530 505.500 C 424.516 503.300,421.234 498.176,418.236 494.114 C 415.238 490.052,410.238 482.852,407.125 478.114 C 404.012 473.376,399.392 466.575,396.858 463.000 C 394.324 459.425,391.479 454.981,390.535 453.125 C 388.761 449.635,380.546 439.061,378.602 437.765 C 376.482 436.352,375.019 437.034,370.526 441.526 M406.000 453.316 C 406.000 454.489,408.487 456.191,416.142 460.260 C 417.439 460.949,421.650 463.570,425.500 466.085 C 431.752 470.169,432.980 471.531,436.986 478.829 C 439.453 483.323,442.099 487.000,442.866 487.000 C 444.818 487.000,464.204 483.995,465.863 483.436 C 466.900 483.086,466.953 482.648,466.086 481.603 C 465.182 480.514,465.468 480.099,467.473 479.596 C 470.571 478.819,470.705 477.620,467.838 476.341 C 465.759 475.413,465.796 475.327,468.838 474.067 C 470.577 473.347,472.000 472.185,472.000 471.486 C 472.000 469.924,474.238 469.000,478.023 469.000 C 480.616 469.000,482.828 467.495,481.778 466.445 C 480.953 465.619,462.394 462.167,436.000 457.930 C 428.575 456.738,419.800 454.922,416.500 453.894 C 409.418 451.689,406.000 451.500,406.000 453.316 M559.592 462.850 C 558.464 464.677,562.143 466.263,570.169 467.410 L 578.342 468.578 573.095 469.789 C 570.209 470.455,565.992 471.000,563.724 471.000 C 560.486 471.000,559.861 471.261,560.816 472.216 C 562.236 473.636,581.882 474.228,589.207 473.073 C 591.796 472.664,593.717 472.650,593.475 473.040 C 592.902 473.968,579.866 475.765,568.527 476.480 C 563.592 476.791,559.114 477.486,558.577 478.023 C 557.941 478.659,558.696 479.000,560.741 479.000 C 562.469 479.000,564.112 479.371,564.392 479.825 C 565.342 481.362,547.740 497.350,537.000 504.706 C 531.954 508.161,527.105 513.000,528.687 513.000 C 529.807 513.000,541.311 508.042,547.000 505.108 C 548.925 504.115,553.200 502.258,556.500 500.981 C 559.800 499.704,563.625 497.929,565.000 497.038 C 566.375 496.146,569.975 494.321,573.000 492.982 C 576.025 491.643,579.850 489.762,581.500 488.803 C 587.427 485.357,590.601 484.315,597.000 483.713 C 600.575 483.377,609.568 481.729,616.985 480.051 C 624.402 478.373,631.577 477.000,632.931 477.000 C 635.364 477.000,635.353 477.041,631.946 480.611 C 627.443 485.330,619.124 491.515,615.985 492.479 C 612.903 493.424,591.427 504.585,587.942 507.052 C 586.536 508.048,583.386 509.648,580.942 510.608 C 578.499 511.568,575.375 513.194,574.000 514.220 C 566.430 519.870,566.470 519.827,567.685 521.064 C 568.608 522.004,569.821 521.885,573.185 520.524 C 578.371 518.426,594.370 512.589,602.000 510.011 C 605.025 508.989,610.578 506.986,614.340 505.560 C 620.800 503.112,639.169 497.455,650.757 494.345 C 653.649 493.569,660.680 490.464,666.382 487.446 C 675.481 482.631,684.982 478.756,701.000 473.329 C 703.475 472.490,705.946 471.380,706.492 470.861 C 709.343 468.147,698.633 467.036,690.525 469.205 C 687.063 470.130,685.266 470.138,682.760 469.238 C 679.397 468.029,668.341 468.977,663.000 470.932 C 661.625 471.435,658.385 472.048,655.801 472.295 L 651.101 472.743 651.675 469.874 C 652.856 463.972,652.640 463.932,620.447 464.089 C 604.352 464.167,590.805 464.008,590.342 463.734 C 588.675 462.749,560.162 461.930,559.592 462.850 M667.418 475.607 C 669.756 476.504,669.338 478.892,666.750 479.428 C 665.513 479.685,661.800 480.186,658.500 480.541 C 655.200 480.897,649.396 482.504,645.602 484.112 C 641.808 485.721,638.550 486.883,638.362 486.696 C 638.174 486.508,639.320 485.109,640.908 483.588 C 643.044 481.541,646.621 480.076,654.648 477.957 C 660.617 476.382,665.576 475.072,665.668 475.046 C 665.761 475.021,666.548 475.273,667.418 475.607 M335.500 481.710 C 319.061 482.341,285.803 485.092,265.000 487.540 C 234.017 491.186,224.964 492.946,193.500 501.437 C 179.378 505.248,156.150 515.005,142.000 523.068 C 117.356 537.113,100.683 556.664,98.512 574.063 C 97.583 581.513,99.625 595.326,102.492 600.984 C 105.428 606.778,110.819 613.567,119.324 622.180 C 134.697 637.749,150.808 648.786,177.500 662.034 C 211.324 678.821,241.657 688.226,293.500 698.003 C 328.131 704.533,389.008 710.011,426.711 709.990 C 447.939 709.978,487.596 707.679,505.000 705.451 C 523.489 703.085,565.729 695.828,583.000 692.052 C 588.225 690.909,600.825 688.199,611.000 686.030 C 621.175 683.861,642.100 679.337,657.500 675.977 C 685.888 669.783,730.800 660.779,754.500 656.532 C 790.603 650.061,830.236 640.997,866.500 630.917 C 872.550 629.236,892.125 624.242,910.000 619.820 C 973.858 604.023,988.476 599.596,1000.307 592.467 C 1019.406 580.960,1022.083 566.383,1007.509 553.249 C 996.325 543.171,966.951 529.308,930.000 516.670 C 912.424 510.659,877.239 502.522,841.000 496.090 C 837.425 495.455,832.475 494.517,830.000 494.005 C 817.801 491.480,785.692 487.216,776.500 486.900 C 764.352 486.482,765.000 486.116,765.000 493.405 C 765.000 499.282,765.294 500.163,768.561 504.073 C 770.520 506.417,772.836 509.722,773.709 511.418 C 774.582 513.113,776.416 515.973,777.785 517.774 C 779.154 519.574,780.866 523.594,781.589 526.707 C 782.317 529.839,783.647 532.782,784.565 533.296 C 785.479 533.808,787.030 535.030,788.014 536.014 C 788.998 536.998,790.859 538.127,792.151 538.524 C 793.443 538.920,794.966 539.614,795.535 540.066 C 796.104 540.518,799.758 542.038,803.656 543.444 C 810.128 545.778,812.111 546.000,826.538 546.000 C 835.225 546.000,842.146 546.176,841.917 546.391 C 841.687 546.606,835.425 547.764,828.000 548.965 C 820.575 550.166,809.914 552.038,804.309 553.125 C 794.165 555.093,794.102 555.093,790.309 553.128 C 788.214 552.043,784.970 550.010,783.101 548.611 C 781.231 547.211,779.288 546.322,778.782 546.635 C 778.260 546.957,778.158 549.962,778.546 553.582 C 779.228 559.950,779.223 559.965,776.121 561.731 C 774.412 562.704,773.167 563.950,773.354 564.500 C 773.798 565.807,781.185 565.310,787.500 563.547 C 794.374 561.629,821.164 557.323,834.500 555.994 C 840.550 555.390,846.850 554.668,848.500 554.388 C 850.765 554.003,851.132 554.131,850.000 554.910 C 849.175 555.477,846.475 556.218,844.000 556.555 C 840.376 557.049,814.088 563.444,806.750 565.617 C 805.788 565.902,805.000 566.556,805.000 567.072 C 805.000 568.187,822.446 567.427,842.445 565.442 C 850.115 564.680,856.559 564.226,856.766 564.432 C 857.197 564.863,843.867 568.000,841.604 568.000 C 840.779 568.000,836.452 569.153,831.989 570.563 C 818.354 574.871,823.504 576.569,844.500 574.689 L 852.500 573.973 848.500 575.587 C 846.300 576.475,842.287 577.721,839.582 578.356 C 836.876 578.991,834.467 580.098,834.228 580.816 C 833.654 582.539,848.747 582.264,861.993 580.310 C 878.454 577.882,878.878 579.139,863.000 583.300 C 844.253 588.213,845.090 587.904,847.247 589.115 C 848.392 589.758,851.665 589.746,856.747 589.081 C 868.104 587.594,884.610 586.620,883.800 587.485 C 883.415 587.897,879.815 589.047,875.800 590.041 C 857.751 594.511,831.090 601.856,829.566 602.780 C 827.859 603.814,832.388 604.691,835.468 603.922 C 839.667 602.874,852.206 600.847,860.000 599.956 C 875.467 598.188,878.500 597.985,876.000 598.888 C 872.825 600.035,856.734 604.879,842.500 608.971 C 827.755 613.211,817.000 617.076,817.000 618.134 C 817.000 618.610,817.337 619.034,817.750 619.077 C 818.163 619.119,819.342 619.312,820.371 619.506 C 821.400 619.700,823.200 619.495,824.371 619.050 C 827.066 618.027,849.868 613.324,856.500 612.423 C 862.067 611.667,862.115 612.676,856.579 614.087 C 854.611 614.589,851.313 615.456,849.250 616.013 C 847.188 616.570,843.250 617.477,840.500 618.029 C 833.851 619.365,803.001 628.489,795.750 631.264 C 792.587 632.475,790.000 633.857,790.000 634.337 C 790.000 635.661,800.041 634.524,814.500 631.562 C 821.650 630.098,828.625 628.677,830.000 628.405 C 831.375 628.133,837.900 626.610,844.500 625.021 C 851.100 623.432,860.375 621.425,865.112 620.560 C 869.849 619.695,876.149 618.160,879.112 617.148 C 885.717 614.894,893.000 613.677,893.000 614.828 C 893.000 615.297,890.413 616.224,887.250 616.889 C 884.087 617.554,878.125 619.019,874.000 620.145 C 869.875 621.271,865.375 622.397,864.000 622.647 C 862.625 622.898,858.960 623.755,855.856 624.551 C 852.751 625.348,849.151 626.027,847.856 626.059 C 846.560 626.091,843.475 627.194,841.000 628.510 C 838.525 629.825,835.600 631.320,834.500 631.831 C 830.142 633.858,809.143 638.492,779.000 644.080 C 766.125 646.467,760.178 647.065,755.000 646.495 C 750.727 646.025,747.827 646.424,742.000 648.286 C 737.875 649.604,730.675 651.263,726.000 651.973 C 721.325 652.682,717.050 653.603,716.500 654.019 C 715.463 654.803,714.007 655.029,697.792 656.927 C 680.612 658.938,674.482 660.357,674.639 662.287 C 674.717 663.251,674.075 664.000,673.171 664.000 C 672.288 664.000,667.950 664.893,663.532 665.983 C 644.132 670.774,583.930 683.265,564.762 686.477 C 560.218 687.238,550.650 688.979,543.500 690.345 C 536.350 691.711,528.250 693.093,525.500 693.417 C 522.750 693.741,513.300 694.871,504.500 695.927 C 456.518 701.687,394.233 701.180,342.000 694.604 C 325.001 692.464,316.603 691.155,309.500 689.539 C 300.008 687.379,293.703 686.001,291.000 685.495 C 274.839 682.471,266.027 680.568,262.618 679.365 C 260.360 678.569,255.135 677.226,251.006 676.381 C 242.562 674.654,238.443 673.463,222.000 667.999 C 209.990 664.008,184.192 653.488,182.550 651.912 C 180.803 650.235,184.340 650.957,193.000 654.045 C 200.589 656.751,223.028 662.266,238.000 665.106 C 241.025 665.680,250.559 667.913,259.187 670.070 C 267.814 672.226,276.589 674.258,278.687 674.585 C 280.784 674.912,286.135 676.038,290.579 677.087 C 295.022 678.135,302.447 679.450,307.079 680.008 C 311.710 680.566,318.650 681.422,322.500 681.911 C 336.010 683.627,332.106 680.225,317.500 677.555 C 312.550 676.650,306.250 675.291,303.500 674.535 C 300.750 673.780,296.475 672.863,294.000 672.498 C 286.676 671.419,253.521 661.543,251.585 659.864 C 250.617 659.024,256.784 660.455,261.000 662.049 C 262.375 662.569,267.100 663.661,271.500 664.476 C 275.900 665.291,281.525 666.406,284.000 666.953 C 308.879 672.461,322.493 674.955,327.833 674.983 C 332.700 675.008,331.315 672.692,325.921 671.785 C 323.490 671.376,320.600 670.621,319.500 670.106 C 316.032 668.483,307.817 666.113,298.500 664.048 C 289.913 662.145,277.389 658.214,279.500 658.085 C 280.050 658.051,285.000 659.157,290.500 660.543 C 299.777 662.880,317.825 666.423,326.000 667.511 C 332.237 668.342,336.171 669.074,344.000 670.861 C 357.792 674.011,373.500 675.178,373.500 673.054 C 373.500 671.362,368.039 669.759,351.077 666.472 C 343.643 665.032,336.872 663.409,336.030 662.866 C 334.906 662.140,335.296 662.023,337.500 662.423 C 346.176 663.998,370.850 666.157,389.921 667.009 C 426.121 668.627,444.571 668.280,468.242 665.535 C 487.880 663.258,494.490 662.112,518.000 656.907 C 522.675 655.872,532.350 654.570,539.500 654.014 C 546.650 653.458,561.050 652.345,571.500 651.540 C 591.737 649.982,597.000 649.238,597.000 647.936 C 597.000 647.040,592.620 646.295,580.500 645.130 C 570.493 644.169,573.123 643.605,595.000 642.023 C 622.708 640.018,624.976 639.548,621.880 636.452 C 620.894 635.466,616.631 634.289,610.995 633.447 C 605.899 632.686,601.535 631.868,601.297 631.630 C 600.795 631.128,613.502 630.265,633.500 629.441 C 646.430 628.908,654.000 627.603,654.000 625.908 C 654.000 624.745,650.009 624.130,637.750 623.403 C 631.288 623.020,626.000 622.422,626.000 622.074 C 626.000 621.727,631.895 620.698,639.100 619.788 C 646.305 618.878,652.455 617.878,652.767 617.567 C 653.982 616.352,651.759 615.729,643.297 614.913 C 638.459 614.446,631.637 613.791,628.137 613.458 C 624.638 613.125,620.833 612.504,619.683 612.078 C 617.296 611.195,621.291 610.666,643.000 608.992 C 650.425 608.419,657.619 607.701,658.986 607.397 C 663.879 606.308,658.670 605.248,645.000 604.552 C 631.454 603.862,625.946 603.279,625.114 602.447 C 624.868 602.201,625.754 601.990,627.083 601.977 C 635.372 601.899,654.207 599.863,656.562 598.790 L 659.366 597.512 655.433 596.814 C 653.270 596.430,645.200 596.033,637.500 595.932 C 620.668 595.713,624.383 594.698,647.939 593.081 C 656.430 592.499,663.738 591.662,664.177 591.223 C 665.083 590.317,665.899 590.408,644.599 589.047 C 635.853 588.488,628.521 587.854,628.305 587.638 C 628.089 587.422,633.531 586.922,640.398 586.525 C 654.061 585.737,658.153 584.348,654.589 581.708 C 652.863 580.428,653.356 580.243,659.703 579.789 C 674.923 578.700,670.534 575.631,653.500 575.452 C 624.667 575.147,562.435 577.023,537.000 578.962 C 511.610 580.898,482.065 584.875,478.147 586.885 C 477.241 587.349,472.247 588.936,467.048 590.410 C 461.850 591.884,457.125 593.469,456.548 593.933 C 455.484 594.789,451.057 596.064,424.855 603.062 C 407.516 607.692,386.028 611.586,373.500 612.367 L 364.500 612.928 373.000 610.891 C 396.037 605.371,396.355 604.497,375.600 603.739 C 358.805 603.126,353.334 601.840,361.050 600.320 C 364.943 599.553,365.641 599.009,366.628 595.980 C 367.611 592.966,368.429 592.321,372.939 591.009 C 375.830 590.167,378.875 588.499,379.826 587.236 C 381.741 584.691,386.777 583.607,401.500 582.570 C 414.693 581.640,419.104 580.977,418.509 580.014 C 418.217 579.543,414.946 578.812,411.239 578.391 C 404.602 577.636,404.561 577.613,408.500 576.870 C 410.700 576.455,414.386 576.089,416.691 576.058 C 418.996 576.026,421.124 575.608,421.421 575.128 C 422.167 573.921,414.602 571.175,406.909 569.861 C 396.499 568.084,398.233 567.467,412.144 568.000 C 419.323 568.275,425.385 568.194,425.615 567.819 C 426.225 566.825,424.323 565.870,420.689 565.347 C 407.893 563.506,396.076 560.099,402.250 560.030 C 403.762 560.014,405.000 559.560,405.000 559.023 C 405.000 557.825,401.373 555.466,398.000 554.470 C 396.625 554.064,389.923 551.080,383.107 547.837 C 371.869 542.491,366.220 538.951,360.500 533.672 C 359.400 532.657,356.904 531.003,354.954 529.997 L 351.409 528.168 348.134 531.027 C 346.333 532.600,341.853 536.672,338.179 540.076 C 324.633 552.629,320.607 555.201,307.000 559.996 C 278.036 570.203,275.154 570.339,293.010 560.655 C 302.935 555.273,304.232 552.022,297.939 548.305 C 294.822 546.464,294.116 545.000,296.345 545.000 C 298.562 545.000,310.153 537.056,309.493 535.988 C 309.157 535.445,307.360 535.000,305.500 535.000 C 300.045 535.000,300.707 533.596,307.324 531.135 C 320.484 526.239,319.548 526.747,317.097 525.840 C 315.901 525.398,308.868 525.439,301.468 525.931 C 289.615 526.720,287.270 527.184,281.757 529.829 C 272.316 534.360,266.527 536.005,260.215 535.950 L 254.500 535.900 264.000 532.411 C 269.225 530.492,275.750 528.281,278.500 527.497 C 281.250 526.714,290.025 523.842,298.000 521.117 C 307.593 517.838,318.240 515.115,329.462 513.069 C 338.791 511.368,346.793 509.607,347.245 509.155 C 348.740 507.660,346.829 505.003,344.143 504.844 C 342.689 504.758,340.150 504.620,338.500 504.538 C 335.854 504.406,318.984 505.672,297.350 507.627 C 290.969 508.204,290.162 508.080,289.850 506.476 C 289.582 505.098,288.449 504.636,285.000 504.498 C 280.894 504.335,257.257 506.422,252.500 507.368 C 251.400 507.587,248.025 508.057,245.000 508.412 C 239.777 509.026,239.651 508.989,242.500 507.687 C 244.150 506.933,247.975 505.995,251.000 505.603 C 254.025 505.210,260.755 503.789,265.955 502.445 C 271.155 501.100,276.837 500.000,278.582 500.000 C 280.327 500.000,282.266 499.384,282.891 498.632 C 283.837 497.492,283.316 497.401,279.763 498.088 C 277.418 498.542,273.025 498.923,270.000 498.935 C 259.255 498.979,230.762 504.248,208.347 510.337 C 190.140 515.282,170.761 523.488,161.500 530.174 C 155.655 534.394,150.751 537.501,148.691 538.290 C 147.085 538.905,147.141 538.512,149.191 534.784 C 153.204 527.488,157.852 523.829,169.556 518.755 C 175.575 516.146,183.589 513.074,187.364 511.930 C 191.139 510.786,195.864 509.008,197.864 507.979 C 201.404 506.159,234.414 497.663,252.500 493.918 C 263.028 491.737,301.481 487.709,331.723 485.618 C 352.910 484.154,358.387 483.171,352.500 481.890 C 349.382 481.211,348.681 481.203,335.500 481.710 M389.936 499.500 C 389.936 500.050,389.276 499.626,388.468 498.559 C 387.661 497.491,387.000 496.168,387.000 495.618 C 387.000 495.068,387.661 495.491,388.468 496.559 C 389.276 497.626,389.936 498.950,389.936 499.500 M550.000 529.479 C 546.425 530.708,542.714 531.579,541.754 531.415 C 540.794 531.251,539.548 531.977,538.985 533.028 C 538.106 534.670,538.528 535.229,541.979 536.989 C 547.095 539.599,550.307 538.840,552.925 534.402 C 554.029 532.531,555.382 531.000,555.931 531.000 C 556.480 531.000,557.411 530.100,558.000 529.000 C 559.348 526.481,558.589 526.526,550.000 529.479 M483.500 535.532 C 467.664 536.831,462.000 537.751,462.000 539.025 C 462.000 540.147,469.769 541.752,483.500 543.468 C 490.100 544.292,499.100 545.429,503.500 545.994 C 527.317 549.053,566.000 551.040,566.000 549.204 C 566.000 547.921,559.825 546.014,555.643 546.006 C 552.576 546.000,539.033 543.835,527.234 541.465 C 523.238 540.662,516.988 538.654,513.346 537.003 C 505.993 533.669,506.125 533.676,483.500 535.532 M861.500 573.000 C 860.400 573.473,858.600 573.884,857.500 573.914 C 855.849 573.960,855.762 573.800,857.000 573.000 C 857.825 572.467,859.625 572.055,861.000 572.086 C 863.290 572.136,863.332 572.213,861.500 573.000 M741.532 575.750 C 736.515 581.813,734.000 585.449,734.000 586.638 C 734.000 588.285,738.531 588.385,748.500 586.958 C 757.410 585.683,759.200 585.106,758.731 583.665 C 758.344 582.478,745.228 574.000,743.777 574.000 C 743.339 574.000,742.329 574.788,741.532 575.750 M884.500 597.000 C 881.709 598.199,878.759 598.199,879.500 597.000 C 879.840 596.450,881.554 596.032,883.309 596.070 C 885.999 596.130,886.186 596.276,884.500 597.000 M902.500 612.915 C 898.616 614.445,894.459 615.182,895.500 614.155 C 896.452 613.217,899.748 612.357,903.000 612.200 C 903.827 612.159,903.603 612.480,902.500 612.915 M179.250 648.642 C 180.213 648.913,181.000 649.543,181.000 650.042 C 181.000 651.289,174.953 650.022,172.500 648.261 C 170.653 646.936,170.767 646.877,174.000 647.488 C 175.925 647.852,178.287 648.371,179.250 648.642 M440.446 680.087 C 439.448 681.703,441.218 682.999,445.336 683.667 C 448.777 684.225,449.000 684.101,449.000 681.631 C 449.000 679.235,448.648 679.000,445.059 679.000 C 442.891 679.000,440.816 679.489,440.446 680.087 " stroke="none" fill="black" fill-rule="evenodd"/></svg>